<?xml version="1.0" encoding="UTF-8" standalone="no"?>
<!-- Created with Inkscape (http://www.inkscape.org/) -->

<svg
   xmlns:dc="http://purl.org/dc/elements/1.1/"
   xmlns:cc="http://creativecommons.org/ns#"
   xmlns:rdf="http://www.w3.org/1999/02/22-rdf-syntax-ns#"
   xmlns:svg="http://www.w3.org/2000/svg"
   xmlns="http://www.w3.org/2000/svg"
   xmlns:sodipodi="http://sodipodi.sourceforge.net/DTD/sodipodi-0.dtd"
   xmlns:inkscape="http://www.inkscape.org/namespaces/inkscape"
   width="325"
   height="300"
   id="svg2"
   version="1.1"
   inkscape:version="0.48.3.1 r9886"
   sodipodi:docname="hybrid_periodic_orbit.svg">
  <defs
     id="defs4">
    <marker
       inkscape:stockid="Arrow2Mstart"
       orient="auto"
       refY="0"
       refX="0"
       id="Arrow2Mstart"
       style="overflow:visible">
      <path
         id="path3952"
         style="fill-rule:evenodd;stroke-width:0.625;stroke-linejoin:round"
         d="M 8.7185878,4.0337352 -2.2072895,0.01601326 8.7185884,-4.0017078 c -1.7454984,2.3720609 -1.7354408,5.6174519 -6e-7,8.035443 z"
         transform="scale(0.6,0.6)"
         inkscape:connector-curvature="0" />
    </marker>
    <marker
       inkscape:stockid="Arrow1Mend"
       orient="auto"
       refY="0"
       refX="0"
       id="Arrow1Mend"
       style="overflow:visible">
      <path
         id="path3937"
         d="M 0,0 5,-5 -12.5,0 5,5 0,0 z"
         style="fill-rule:evenodd;stroke:#000000;stroke-width:1pt"
         transform="matrix(-0.4,0,0,-0.4,-4,0)"
         inkscape:connector-curvature="0" />
    </marker>
    <marker
       inkscape:stockid="Arrow1Lstart"
       orient="auto"
       refY="0"
       refX="0"
       id="Arrow1Lstart"
       style="overflow:visible">
      <path
         id="path4086"
         d="M 0,0 5,-5 -12.5,0 5,5 0,0 z"
         style="fill-rule:evenodd;stroke:#000000;stroke-width:1pt"
         transform="matrix(0.8,0,0,0.8,10,0)"
         inkscape:connector-curvature="0" />
    </marker>
    <marker
       inkscape:stockid="Arrow1Lend"
       orient="auto"
       refY="0"
       refX="0"
       id="Arrow1Lend"
       style="overflow:visible">
      <path
         id="path4892"
         d="M 0,0 5,-5 -12.5,0 5,5 0,0 z"
         style="fill-rule:evenodd;stroke:#000000;stroke-width:1pt"
         transform="matrix(-0.8,0,0,-0.8,-10,0)"
         inkscape:connector-curvature="0" />
    </marker>
    <inkscape:perspective
       sodipodi:type="inkscape:persp3d"
       inkscape:vp_x="0 : 372.04724 : 1"
       inkscape:vp_y="0 : 1000 : 0"
       inkscape:vp_z="1052.3622 : 372.04724 : 1"
       inkscape:persp3d-origin="526.18109 : 248.03149 : 1"
       id="perspective4063" />
    <marker
       inkscape:stockid="Arrow1Lend"
       orient="auto"
       refY="0"
       refX="0"
       id="Arrow1Lend-7"
       style="overflow:visible">
      <path
         inkscape:connector-curvature="0"
         id="path4892-4"
         d="M 0,0 5,-5 -12.5,0 5,5 0,0 z"
         style="fill-rule:evenodd;stroke:#000000;stroke-width:1pt"
         transform="matrix(-0.8,0,0,-0.8,-10,0)" />
    </marker>
    <marker
       inkscape:stockid="Arrow1Lend"
       orient="auto"
       refY="0"
       refX="0"
       id="Arrow1Lend-8"
       style="overflow:visible">
      <path
         id="path4892-3"
         d="M 0,0 5,-5 -12.5,0 5,5 0,0 z"
         style="fill-rule:evenodd;stroke:#000000;stroke-width:1pt"
         transform="matrix(-0.8,0,0,-0.8,-10,0)"
         inkscape:connector-curvature="0" />
    </marker>
    <marker
       inkscape:stockid="Arrow1Lend"
       orient="auto"
       refY="0"
       refX="0"
       id="marker4478"
       style="overflow:visible">
      <path
         id="path4480"
         d="M 0,0 5,-5 -12.5,0 5,5 0,0 z"
         style="fill-rule:evenodd;stroke:#000000;stroke-width:1pt"
         transform="matrix(-0.8,0,0,-0.8,-10,0)"
         inkscape:connector-curvature="0" />
    </marker>
    <marker
       inkscape:stockid="Arrow2Mstart"
       orient="auto"
       refY="0"
       refX="0"
       id="Arrow2Mstart-6"
       style="overflow:visible">
      <path
         id="path3952-4"
         style="fill-rule:evenodd;stroke-width:0.625;stroke-linejoin:round"
         d="M 8.7185878,4.0337352 -2.2072895,0.01601326 8.7185884,-4.0017078 c -1.7454984,2.3720609 -1.7354408,5.6174519 -6e-7,8.035443 z"
         transform="scale(0.6,0.6)"
         inkscape:connector-curvature="0" />
    </marker>
    <marker
       inkscape:stockid="Arrow1Lend"
       orient="auto"
       refY="0"
       refX="0"
       id="marker4484"
       style="overflow:visible">
      <path
         id="path4486"
         d="M 0,0 5,-5 -12.5,0 5,5 0,0 z"
         style="fill-rule:evenodd;stroke:#000000;stroke-width:1pt"
         transform="matrix(-0.8,0,0,-0.8,-10,0)"
         inkscape:connector-curvature="0" />
    </marker>
    <marker
       inkscape:stockid="Arrow1Lend"
       orient="auto"
       refY="0"
       refX="0"
       id="Arrow1Lend-1"
       style="overflow:visible">
      <path
         id="path4892-6"
         d="M 0,0 5,-5 -12.5,0 5,5 0,0 z"
         style="fill-rule:evenodd;stroke:#000000;stroke-width:1pt"
         transform="matrix(-0.8,0,0,-0.8,-10,0)"
         inkscape:connector-curvature="0" />
    </marker>
    <marker
       inkscape:stockid="Arrow1Lend"
       orient="auto"
       refY="0"
       refX="0"
       id="marker5021"
       style="overflow:visible">
      <path
         id="path5023"
         d="M 0,0 5,-5 -12.5,0 5,5 0,0 z"
         style="fill-rule:evenodd;stroke:#000000;stroke-width:1pt"
         transform="matrix(-0.8,0,0,-0.8,-10,0)"
         inkscape:connector-curvature="0" />
    </marker>
    <marker
       inkscape:stockid="Arrow2Mstart"
       orient="auto"
       refY="0"
       refX="0"
       id="Arrow2Mstart-3"
       style="overflow:visible">
      <path
         id="path3952-3"
         style="fill-rule:evenodd;stroke-width:0.625;stroke-linejoin:round"
         d="M 8.7185878,4.0337352 -2.2072895,0.01601326 8.7185884,-4.0017078 c -1.7454984,2.3720609 -1.7354408,5.6174519 -6e-7,8.035443 z"
         transform="scale(0.6,0.6)"
         inkscape:connector-curvature="0" />
    </marker>
    <marker
       inkscape:stockid="Arrow1Lend"
       orient="auto"
       refY="0"
       refX="0"
       id="marker5027"
       style="overflow:visible">
      <path
         id="path5029"
         d="M 0,0 5,-5 -12.5,0 5,5 0,0 z"
         style="fill-rule:evenodd;stroke:#000000;stroke-width:1pt"
         transform="matrix(-0.8,0,0,-0.8,-10,0)"
         inkscape:connector-curvature="0" />
    </marker>
  </defs>
  <sodipodi:namedview
     id="base"
     pagecolor="#ffffff"
     bordercolor="#666666"
     borderopacity="1.0"
     inkscape:pageopacity="0.0"
     inkscape:pageshadow="2"
     inkscape:zoom="2"
     inkscape:cx="142.71934"
     inkscape:cy="147.42221"
     inkscape:document-units="px"
     inkscape:current-layer="g4112"
     showgrid="false"
     inkscape:window-width="1855"
     inkscape:window-height="1056"
     inkscape:window-x="65"
     inkscape:window-y="24"
     inkscape:window-maximized="1"
     inkscape:object-paths="true"
     inkscape:snap-intersection-paths="true"
     inkscape:object-nodes="true"
     inkscape:snap-smooth-nodes="true"
     inkscape:snap-midpoints="true"
     inkscape:snap-object-midpoints="true"
     inkscape:snap-center="true"
     inkscape:snap-nodes="true" />
  <metadata
     id="metadata7">
    <rdf:RDF>
      <cc:Work
         rdf:about="">
        <dc:format>image/svg+xml</dc:format>
        <dc:type
           rdf:resource="http://purl.org/dc/dcmitype/StillImage" />
        <dc:title />
      </cc:Work>
    </rdf:RDF>
  </metadata>
  <g
     inkscape:label="Layer 1"
     inkscape:groupmode="layer"
     id="layer1"
     transform="translate(0,-752.36218)">
    <g
       transform="translate(189.3883,-11.19423)"
       id="g3905-6-3">
      <g
         id="g4112">
        <path
           inkscape:connector-curvature="0"
           id="path4333"
           d=""
           style="fill:#008000;fill-opacity:1;stroke:#000000;stroke-width:0.70710677;stroke-miterlimit:4;stroke-opacity:1;stroke-dasharray:none;stroke-dashoffset:0" />
        <path
           inkscape:connector-curvature="0"
           id="path4335"
           d=""
           style="fill:#008000;fill-opacity:1;stroke:#000000;stroke-width:0.70710677;stroke-miterlimit:4;stroke-opacity:1;stroke-dasharray:none;stroke-dashoffset:0" />
        <path
           inkscape:connector-curvature="0"
           id="path4337"
           d=""
           style="fill:#008000;fill-opacity:1;stroke:#000000;stroke-width:0.70710677;stroke-miterlimit:4;stroke-opacity:1;stroke-dasharray:none;stroke-dashoffset:0" />
        <path
           inkscape:connector-curvature="0"
           id="path4339"
           d=""
           style="fill:#008000;fill-opacity:1;stroke:#000000;stroke-width:0.70710677;stroke-miterlimit:4;stroke-opacity:1;stroke-dasharray:none;stroke-dashoffset:0" />
        <path
           inkscape:connector-curvature="0"
           id="path4341"
           d=""
           style="fill:#008000;fill-opacity:1;stroke:#000000;stroke-width:0.70710677;stroke-miterlimit:4;stroke-opacity:1;stroke-dasharray:none;stroke-dashoffset:0" />
        <path
           style="opacity:0.67489714;fill:#008000;fill-opacity:1;stroke:none"
           d=""
           id="path5158"
           inkscape:connector-curvature="0"
           transform="translate(-189.3883,319.46193)" />
        <text
           xml:space="preserve"
           style="font-size:12px;font-style:normal;font-weight:normal;line-height:125%;letter-spacing:0px;word-spacing:0px;fill:#000000;fill-opacity:1;stroke:none;font-family:Sans"
           x="-128.37634"
           y="788.8205"
           id="text5284-0"
           sodipodi:linespacing="125%"><tspan
             sodipodi:role="line"
             id="tspan5286-4"
             x="-128.37634"
             y="788.8205">Dx</tspan></text>
        <g
           id="g5365"
           transform="translate(-43.84062,-103.9447)">
          <g
             transform="translate(-118.10617,638.4828)"
             style="stroke-width:2;stroke-miterlimit:4;stroke-dasharray:none"
             id="g5216">
            <path
               inkscape:connector-curvature="0"
               id="path3013"
               d="M -13.64968,367.98699 C 24.242657,470.71077 24.242657,470.71077 24.242657,470.71077"
               style="fill:#ffffff;stroke:#000000;stroke-width:2;stroke-linecap:butt;stroke-linejoin:miter;stroke-miterlimit:4;stroke-opacity:1;stroke-dasharray:none" />
            <g
               style="stroke-width:2;stroke-miterlimit:4;stroke-dasharray:none"
               id="g5197"
               transform="translate(-4.9497473,-276.47874)">
              <path
                 style="fill:#ffffff;stroke:#000000;stroke-width:2;stroke-linecap:butt;stroke-linejoin:miter;stroke-miterlimit:4;stroke-opacity:1;stroke-dasharray:none"
                 d="m -8.6999327,644.46573 c 28.4283177,5.82198 51.4001527,14.46101 75.9116447,12.89543 16.617414,-1.06136 34.938028,-10.10259 52.309108,-15.21197 21.85269,-6.42756 49.39873,6.83946 74.7924,8.89136 11.25648,0.90955 22.09002,-0.38461 31.81724,-6.57482"
                 id="path2991"
                 inkscape:connector-curvature="0"
                 sodipodi:nodetypes="csssc" />
              <g
                 style="stroke-width:2;stroke-miterlimit:4;stroke-dasharray:none"
                 id="g5193">
                <path
                   sodipodi:nodetypes="csssc"
                   inkscape:connector-curvature="0"
                   id="path2991-7"
                   d="m 29.192404,747.18951 c 29.115782,6.76243 52.643125,16.79696 77.747366,14.97849 17.01926,-1.23281 35.78291,-11.73451 53.57406,-17.66923 22.38114,-7.46583 50.59331,7.94427 76.60106,10.32762 11.52868,1.05648 22.6242,-0.44674 32.58666,-7.63688"
                   style="fill:#ffffff;stroke:#000000;stroke-width:2;stroke-linecap:butt;stroke-linejoin:miter;stroke-miterlimit:4;stroke-opacity:1;stroke-dasharray:none" />
                <path
                   inkscape:connector-curvature="0"
                   id="path3013-9"
                   d="m 226.42814,643.65157 c 43.60703,104.40871 43.60703,104.40871 43.60703,104.40871"
                   style="fill:none;stroke:#000000;stroke-width:2;stroke-linecap:butt;stroke-linejoin:miter;stroke-miterlimit:4;stroke-opacity:1;stroke-dasharray:none"
                   inkscape:transform-center-x="20.829879"
                   inkscape:transform-center-y="-52.573869" />
              </g>
            </g>
          </g>
          <path
             inkscape:connector-curvature="0"
             id="path5226"
             d="m -29.0272,1122.8697 c -10.34038,-0.9394 -18.99849,-2.783 -40.5,-8.6236 -8.1125,-2.2036 -16.68951,-4.4904 -19.06001,-5.0816 l -4.31001,-1.075 -18.35404,-49.7491 c -10.09471,-27.3621 -18.27295,-49.8303 -18.17385,-49.9294 0.0991,-0.099 1.07292,0.034 2.16405,0.2949 46.70084,11.1845 49.36395,11.664 64.98386,11.6998 14.75824,0.034 17.68387,-0.661 49.17212,-11.6782 5.59467,-1.9575 12.09289,-3.894 14.44049,-4.3034 9.57409,-1.6696 18.31025,-0.6827 41.68704,4.7094 17.23157,3.9746 24.53384,5.0822 34.14445,5.1786 9.42016,0.095 16.29883,-1.3599 23.43648,-4.9556 l 2.38059,-1.1993 0.50698,1.1363 c 0.27884,0.6249 9.71752,23.1862 20.97485,50.1362 l 20.46787,49 -1.10067,0.9275 c -2.63768,2.2227 -9.63152,4.9392 -14.92992,5.7989 -4.14063,0.6719 -13.31928,0.6659 -18.26911,-0.012 -5.13734,-0.7035 -14.8292,-2.8678 -25.66118,-5.7303 -22.46656,-5.9371 -31.93473,-7.1817 -41.69053,-5.4805 -5.41959,0.9451 -8.91631,2.1431 -24.80946,8.4999 -21.34747,8.5382 -27.34249,10.1674 -38.5,10.4625 -3.7125,0.098 -7.7625,0.086 -9,-0.026 l 0,-10e-5 z"
             style="opacity:0.67489714;fill:#002255;fill-opacity:1;stroke:none" />
          <text
             sodipodi:linespacing="125%"
             id="text5284-4"
             y="1142.8724"
             x="-90.119339"
             style="font-size:12px;font-style:normal;font-weight:normal;line-height:125%;letter-spacing:0px;word-spacing:0px;fill:#000000;fill-opacity:1;stroke:none;font-family:Sans"
             xml:space="preserve"><tspan
               y="1142.8724"
               x="-90.119339"
               id="tspan5286-0"
               sodipodi:role="line">xdot</tspan></text>
          <path
             inkscape:connector-curvature="0"
             id="path3344"
             d="m -44.04747,1119.9643 c -23.73669,-5.3676 -48.40183,-12.3604 -49.00919,-13.8946 -0.3536,-0.8933 -7.15127,-19.3991 -15.10593,-41.1241 -7.95466,-21.725 -15.77674,-43.0775 -17.38239,-47.45 -1.60565,-4.3725 -2.80796,-8.0614 -2.6718,-8.1976 0.13616,-0.1361 5.85864,1.1046 12.71664,2.7571 34.08478,8.2134 52.42141,10.4102 66.4717,7.9635 3.79865,-0.6616 15.92706,-4.1335 26.95201,-7.7154 11.02495,-3.582 22.64754,-6.9399 25.82796,-7.4622 7.49784,-1.2312 16.684,-0.058 41.0249,5.2406 16.63094,3.6201 20.86085,4.1841 31.69251,4.2259 10.50167,0.04 13.4592,-0.3054 18.5,-2.1632 3.3,-1.2163 6.42602,-2.321 6.9467,-2.455 0.52069,-0.134 10.27777,22.0103 21.68241,49.2095 23.46002,55.9505 22.30798,50.1851 10.80609,54.0799 -9.84184,3.3328 -23.52546,2.4251 -44.9352,-2.9805 -38.9057,-9.8232 -41.22775,-9.7215 -75.10324,3.2881 -8.03178,3.0846 -17.23883,6.2948 -20.4601,7.1338 -8.15442,2.124 -27.5761,1.8907 -37.95307,-0.4558 l 0,0 z"
             style="fill:#6666cc;fill-opacity:1;stroke:#000000;stroke-width:2;stroke-miterlimit:4;stroke-opacity:1;stroke-dasharray:none;stroke-dashoffset:0" />
          <g
             transform="translate(-115.51705,76.36572)"
             id="g4780">
            <path
               style="fill:none;stroke:#000000;stroke-width:1.08549416px;stroke-linecap:butt;stroke-linejoin:miter;stroke-opacity:1"
               d="m 264.40406,911.4028 c -2.05336,-3.99163 -15.14606,-10.03055 -22.81837,-27.7606 -7.47859,-17.28239 -0.66156,-22.66543 -3.92709,-31.56783 -6.4353,-17.54381 -17.44577,-28.00844 -17.44577,-28.00844"
               id="path4236-1"
               inkscape:connector-curvature="0"
               sodipodi:nodetypes="cssc" />
            <path
               style="fill:none;stroke:#000000;stroke-width:1;stroke-linecap:butt;stroke-linejoin:miter;stroke-miterlimit:4;stroke-opacity:1;stroke-dasharray:6, 6;stroke-dashoffset:0"
               d="m 218.88927,929.28991 c 1.01015,56.06346 1.01015,56.06346 1.01015,56.06346"
               id="path4077"
               inkscape:connector-curvature="0" />
            <path
               inkscape:connector-curvature="0"
               id="path3881-4"
               d="m 220.21283,824.06593 c -1.32356,105.22398 -1.32356,105.22398 -1.32356,105.22398"
               style="fill:none;stroke:#000000;stroke-width:1;stroke-linecap:butt;stroke-linejoin:miter;stroke-miterlimit:4;stroke-opacity:1;stroke-dasharray:none" />
            <path
               inkscape:connector-curvature="0"
               id="path3881-9-7"
               d="m 264.40406,911.4028 c -2.0203,178.78 -2.0203,178.78 -2.0203,178.78"
               style="fill:none;stroke:#000000;stroke-width:1.05503631px;stroke-linecap:butt;stroke-linejoin:miter;stroke-opacity:1" />
            <path
               sodipodi:nodetypes="csc"
               inkscape:connector-curvature="0"
               id="path3903-9"
               d="m 246.14722,1043.6417 c 7.73138,10.3426 7.84404,22.4845 10.20276,29.2456 6.03378,17.2955 6.03378,17.2955 6.03378,17.2955"
               style="fill:none;stroke:#000000;stroke-width:1;stroke-linecap:butt;stroke-linejoin:miter;stroke-miterlimit:4;stroke-opacity:1;stroke-dasharray:none" />
            <path
               style="fill:none;stroke:#000000;stroke-width:1;stroke-linecap:butt;stroke-linejoin:miter;stroke-miterlimit:4;stroke-opacity:1;stroke-dasharray:6, 6;stroke-dashoffset:0"
               d="m 219.89942,985.35337 c 3.8917,9.08063 8.67391,9.12745 11.41646,15.52673 14.34243,33.4656 12.8272,41.0418 12.8272,41.0418"
               id="path4079"
               inkscape:connector-curvature="0"
               sodipodi:nodetypes="csc" />
          </g>
          <path
             sodipodi:open="true"
             sodipodi:end="6.9027772"
             sodipodi:start="2.4591689"
             transform="matrix(0.42031741,0,0,0.89090851,-190.78658,735.26814)"
             d="M 191.76235,370.04639 C 69.477268,322.46519 92.327082,252.54624 242.79884,213.87805 393.2706,175.20986 614.38371,182.43528 736.6688,230.01648 c 99.64018,38.77005 105.11024,93.81021 13.36525,134.48214"
             sodipodi:ry="111.01576"
             sodipodi:rx="351.07852"
             sodipodi:cy="300.03143"
             sodipodi:cx="464.21558"
             id="path4372"
             style="fill:none;stroke:#000000;stroke-width:3;stroke-miterlimit:4;stroke-opacity:1;stroke-dasharray:12, 3;stroke-dashoffset:0;marker-start:url(#Arrow1Lstart);marker-end:none"
             sodipodi:type="arc" />
          <text
             sodipodi:linespacing="125%"
             id="text5284-6-86"
             y="928.44006"
             x="122.14155"
             style="font-size:12px;font-style:normal;font-weight:normal;line-height:125%;letter-spacing:0px;word-spacing:0px;fill:#000000;fill-opacity:1;stroke:none;font-family:Sans"
             xml:space="preserve"><tspan
               y="928.44006"
               x="122.14155"
               id="tspan5286-2-8"
               sodipodi:role="line">G</tspan></text>
          <path
             style="fill:none;stroke:#000000;stroke-width:1px;stroke-linecap:butt;stroke-linejoin:miter;stroke-opacity:1"
             d="M 35.362156,197.44451 C 90,176.5 115,208 139,190.5 c 24,-17.5 49.30803,-22.98491 82,-6.5 32.69197,16.48491 49.18537,8.34008 49.18537,8.34008 l -0.1719,0.16187 0.1719,-0.16187"
             id="path3893"
             inkscape:connector-curvature="0"
             transform="translate(-145.54768,867.50111)" />
        </g>
        <text
           xml:space="preserve"
           style="font-size:12px;font-style:normal;font-weight:normal;line-height:125%;letter-spacing:0px;word-spacing:0px;fill:#000000;fill-opacity:1;stroke:none;font-family:Sans"
           x="26.929302"
           y="935.52032"
           id="text5284-0-4"
           sodipodi:linespacing="125%"><tspan
             sodipodi:role="line"
             id="tspan5286-4-8"
             x="26.929302"
             y="935.52032">xstar</tspan></text>
        <text
           xml:space="preserve"
           style="font-size:12px;font-style:normal;font-weight:normal;line-height:125%;letter-spacing:0px;word-spacing:0px;fill:#000000;fill-opacity:1;stroke:none;font-family:Sans"
           x="-142.29944"
           y="892.23315"
           id="text5284-0-8"
           sodipodi:linespacing="125%"><tspan
             sodipodi:role="line"
             id="tspan5286-4-1"
             x="-142.29944"
             y="892.23315">D</tspan></text>
      </g>
    </g>
  </g>
</svg>
